<svg xmlns="http://www.w3.org/2000/svg" width="160" height="48" viewBox="0 0 160 48" fill="none"><path d="M0 0H160V47.513H0V0Z" fill="#C30D23"></path><path d="M15.6733 20.9604V28.857C15.6733 30.3739 15.7577 31.4999 15.9299 32.2376C16.101 32.9728 16.4169 33.5798 16.879 34.0549C17.2793 34.4719 17.7449 34.7795 18.2723 34.9803C18.7997 35.181 19.4958 35.3033 20.3581 35.3473V35.8604H6.10303V35.3473C6.96539 35.3033 7.66146 35.1798 8.18885 34.9803C8.71624 34.7795 9.18187 34.4707 9.58217 34.0549C10.0597 33.5786 10.378 32.9776 10.5407 32.2483C10.7059 31.5189 10.7866 30.3893 10.7866 28.857V12.4175C10.7866 10.8864 10.7047 9.75561 10.5407 9.02747C10.378 8.29933 10.0585 7.6971 9.58217 7.22079C9.18187 6.78961 8.71268 6.47721 8.17697 6.28359C7.64245 6.08998 6.94995 5.9712 6.10303 5.92606V5.41292H16.8552C18.6548 5.41292 19.8355 5.42004 20.4009 5.43549C22.7053 5.54002 24.5131 5.85241 25.8221 6.37268C27.2938 6.96778 28.4353 7.85627 29.2454 9.03816C30.0567 10.22 30.4629 11.592 30.4629 13.154C30.4629 15.4738 29.5851 17.3327 27.8307 18.7308C27.2938 19.1477 26.7035 19.4898 26.0573 19.7571C25.4111 20.0255 24.5428 20.2785 23.4583 20.5161C24.3516 20.8879 25.0108 21.2739 25.4444 21.6766C25.7853 21.989 26.0977 22.3798 26.3816 22.8478C26.6631 23.3158 27.0871 24.1449 27.6525 25.3339C28.9746 28.0552 29.9759 30.0448 30.6518 31.3016C31.3289 32.5583 31.8978 33.4693 32.3587 34.0347C32.7305 34.4956 33.0904 34.8151 33.4396 34.9933C33.7889 35.1715 34.2699 35.2915 34.8793 35.3497V35.8628H27.4744C27.1014 35.0444 26.8638 34.5241 26.7593 34.3008L25.1973 30.754C24.2601 28.6278 23.317 26.7463 22.3644 25.1106C21.4117 23.4892 20.5434 22.381 19.7535 21.7871C19.3532 21.4901 18.9197 21.2775 18.46 21.1516C17.9979 21.0257 17.4337 20.9615 16.7649 20.9615H15.6721L15.6733 20.9604ZM15.6733 20.4698H16.5214C18.3649 20.4698 19.6846 20.3664 20.4793 20.1574C21.2751 19.9495 22.0223 19.5183 22.7219 18.8638C24.2839 17.3767 25.0643 15.5332 25.0643 13.3321C25.0643 12.1574 24.8386 11.0539 24.3837 10.0205C23.9299 8.98708 23.3027 8.13541 22.4998 7.46667C21.875 6.96065 21.1314 6.60787 20.269 6.40713C19.4055 6.20638 18.1785 6.10661 16.588 6.10661H15.6733V20.471V20.4698Z" fill="white"></path><path d="M54.0567 33.6974L54.4356 33.9207C53.9011 35.4827 52.6741 36.2631 50.7557 36.2631C49.6986 36.2631 48.8196 36.003 48.12 35.4827C47.6579 35.1406 47.1816 34.5455 46.6886 33.6986C45.6909 34.5918 44.939 35.1786 44.4329 35.4613C43.4637 35.997 42.34 36.2643 41.0607 36.2643C39.4215 36.2643 38.1232 35.8699 37.1623 35.0824C36.2013 34.2937 35.7214 33.2306 35.7214 31.8919C35.7214 30.6578 36.1158 29.6244 36.9033 28.7917C37.35 28.3308 37.8619 27.9626 38.4427 27.687C39.0236 27.4126 39.8634 27.1335 40.9633 26.8508C42.2569 26.5241 43.2119 26.2486 43.8295 26.0252C44.4472 25.8019 44.9627 25.5347 45.3796 25.2223C45.8572 24.8802 46.1838 24.4787 46.362 24.0178C46.5401 23.5569 46.6281 22.9167 46.6281 22.0995C46.6281 20.3593 46.3026 19.0883 45.6469 18.2854C45.3499 17.9136 44.9663 17.6166 44.4983 17.3933C44.0303 17.17 43.5433 17.0595 43.0373 17.0595C42.4279 17.0595 41.8851 17.2151 41.4099 17.5275C40.9348 17.8399 40.5761 18.2711 40.3385 18.8211L39.7814 20.1158C39.4833 20.8154 38.9476 21.1635 38.1743 21.1635C37.6683 21.1635 37.2454 20.996 36.9033 20.6622C36.5624 20.3272 36.3902 19.9068 36.3902 19.4019C36.3902 18.6429 36.9271 18.0039 37.9997 17.4836C38.5805 17.2163 39.298 16.9966 40.1556 16.8255C41.0132 16.6545 41.8494 16.569 42.669 16.569C43.592 16.569 44.5529 16.6889 45.5507 16.9265C46.5485 17.1641 47.3835 17.4693 48.0546 17.8411C49.0215 18.3911 49.6249 19.105 49.8637 19.9828C49.9825 20.4294 50.0419 21.1801 50.0419 22.2361V30.4891C50.0419 31.8872 50.1012 32.8386 50.22 33.3446C50.473 34.4006 51.0824 34.928 52.0493 34.928C52.5113 34.928 52.8713 34.846 53.1302 34.6833C53.3915 34.5194 53.7004 34.1927 54.0567 33.701V33.6974ZM46.6732 24.9087C45.8726 25.5786 44.99 26.1654 44.0267 26.6714C42.9434 27.2511 42.1951 27.6894 41.7794 27.9863C41.3648 28.2845 40.9871 28.642 40.6462 29.0578C39.9501 29.9213 39.6021 30.9238 39.6021 32.0701C39.6021 33.0512 39.8717 33.8613 40.4133 34.5016C40.9526 35.1406 41.6392 35.4601 42.4707 35.4601C43.1976 35.4601 43.8806 35.2333 44.5256 34.7795C45.1706 34.3258 45.6564 33.72 45.9831 32.9621C46.4416 31.9656 46.672 30.5235 46.672 28.6349V24.9099L46.6732 24.9087Z" fill="white"></path><path d="M70.4273 36.6206C70.2776 35.8771 70.2028 35.0895 70.2028 34.2557C69.1053 34.9708 68.0695 35.4827 67.0966 35.7951C66.1226 36.1075 65.0797 36.2631 63.9667 36.2631C61.7099 36.2631 59.7773 35.5872 58.1737 34.2331C57.1498 33.3708 56.3623 32.2886 55.8123 30.988C55.2635 29.6873 54.9891 28.2631 54.9891 26.7154C54.9891 25.0797 55.2861 23.5664 55.88 22.1755C56.4739 20.7857 57.3042 19.6288 58.3733 18.7071C60.0671 17.2793 62.0781 16.5654 64.411 16.5654C65.5394 16.5654 66.5039 16.7293 67.3069 17.0572C68.1075 17.3838 69.0435 17.9789 70.1125 18.8413V10.5942C70.1125 8.97877 69.8441 7.81707 69.3048 7.10438C68.7667 6.39287 67.8759 6.03771 66.6334 6.03771V5.502L73.4824 4.63252V30.4475C73.4824 32.1247 73.7508 33.3209 74.2854 34.0336C74.8199 34.7463 75.706 35.1014 76.9401 35.1014V35.6585L70.4273 36.6183V36.6206ZM70.1125 26.2248C70.1125 24.158 70.0246 22.6067 69.8465 21.5733C69.6695 20.5411 69.3511 19.6965 68.8914 19.042C68.4923 18.4766 67.9543 18.0241 67.2808 17.682C66.6073 17.3399 65.9148 17.1688 65.2033 17.1688C63.6175 17.1688 62.2479 17.9124 61.0946 19.3996C60.3973 20.2916 59.8533 21.3547 59.4601 22.5889C59.0681 23.8242 58.8733 25.0952 58.8733 26.403C58.8733 27.7108 59.0586 28.9342 59.4281 30.1612C59.7975 31.3883 60.2999 32.4407 60.939 33.3173C62.0508 34.8341 63.412 35.5932 65.0275 35.5932C65.796 35.5932 66.5301 35.3996 67.2273 35.0123C67.9234 34.6263 68.4852 34.0906 68.9164 33.4064C69.3595 32.6925 69.6719 31.8111 69.8477 30.7635C70.0258 29.7146 70.1137 28.2025 70.1137 26.2236L70.1125 26.2248Z" fill="white"></path><path d="M78.1814 17.3696L84.6052 16.5654V29.4129L84.6289 31.102C84.6289 32.1093 84.6883 32.8469 84.8071 33.3137C84.9259 33.7806 85.1563 34.1702 85.4984 34.4802C85.9142 34.8805 86.6815 35.1846 87.7969 35.3912V35.8592H77.9379V35.3912C78.8312 35.2736 79.469 35.1073 79.8563 34.8924C80.2435 34.6774 80.5559 34.3115 80.7935 33.7936C80.9562 33.4539 81.0714 32.9396 81.1391 32.2518C81.2056 31.5641 81.2389 30.5687 81.2389 29.2668V23.785C81.2389 22.2622 81.2021 21.192 81.1272 20.5779C81.0524 19.9638 80.8897 19.4649 80.6367 19.08C80.3837 18.6655 80.0796 18.3661 79.722 18.1808C79.3657 17.9955 78.8525 17.8815 78.1826 17.8376V17.3696H78.1814ZM82.8341 8.55828C82.2497 8.55828 81.7687 8.37298 81.3862 8.00119C81.0061 7.6294 80.8136 7.1614 80.8136 6.59599C80.8136 6.03059 81.0084 5.58159 81.3981 5.20149C81.7865 4.82257 82.2652 4.63252 82.8341 4.63252C83.4031 4.63252 83.8794 4.82138 84.2678 5.20149C84.6563 5.5804 84.8522 6.04603 84.8522 6.59599C84.8522 7.14595 84.6622 7.6294 84.2797 8.00119C83.8972 8.37298 83.4162 8.55828 82.8341 8.55828Z" fill="white"></path><path d="M90.3566 35.7725L90.4231 26.5598L90.9375 26.5823C91.5623 28.9271 92.3059 30.7742 93.1682 32.1235C94.7896 34.6156 96.8255 35.8616 99.2796 35.8616C100.989 35.8616 102.402 35.2891 103.518 34.144C104.633 32.999 105.191 31.5486 105.191 29.7942C105.191 29.0364 105.069 28.2631 104.823 27.4744C104.577 26.6857 104.246 26.0098 103.83 25.4444C103.399 24.8636 102.793 24.3065 102.013 23.7708C101.232 23.2362 100.039 22.5592 98.4327 21.7408C97.0191 21.0269 95.9382 20.4258 95.1863 19.9341C94.4356 19.4435 93.8298 18.9458 93.369 18.4398C92.0909 17.0417 91.4506 15.3396 91.4506 13.3321C91.4506 12.098 91.7001 10.909 92.1978 9.76273C92.6966 8.61767 93.3915 7.63653 94.2836 6.8193C95.8598 5.36184 97.7259 4.6337 99.883 4.6337C100.583 4.6337 101.229 4.70379 101.823 4.84514C102.419 4.98649 103.212 5.26563 104.21 5.68137C104.954 5.97951 105.46 6.16837 105.726 6.25033C105.994 6.33229 106.232 6.37387 106.441 6.37387C106.96 6.37387 107.31 5.99495 107.489 5.23593H108.003L108.159 14.0924H107.644C107.244 12.6788 106.899 11.5979 106.608 10.846C106.32 10.0953 105.974 9.40045 105.573 8.76021C104.846 7.60089 104.044 6.74209 103.167 6.185C102.292 5.62673 101.283 5.34877 100.14 5.34877C98.4766 5.34877 97.1641 5.91418 96.1984 7.04618C95.7981 7.50705 95.4821 8.05108 95.2517 8.67587C95.0224 9.30186 94.9072 9.92665 94.9072 10.5514C94.9072 13.0376 96.5048 15.0402 99.6965 16.5595L102.836 18.0775C105.257 19.2238 107.002 20.4888 108.071 21.8738C109.288 23.4215 109.896 25.2235 109.896 27.2772C109.896 28.6432 109.622 29.9474 109.072 31.1935C108.298 32.9301 107.138 34.2687 105.59 35.2107C104.044 36.1514 102.223 36.6242 100.125 36.6242C98.207 36.6242 96.3646 36.2453 94.5936 35.4863C93.6719 35.0848 93.1219 34.8543 92.9437 34.795C92.7644 34.7356 92.5636 34.7059 92.3415 34.7059C91.6264 34.7059 91.1358 35.0634 90.8686 35.7773H90.3554L90.3566 35.7725Z" fill="white"></path><path d="M116.896 23.7268C116.837 24.4561 116.808 24.9835 116.808 25.3102C116.808 26.6049 116.997 27.8676 117.374 29.1029C117.753 30.337 118.268 31.3633 118.92 32.1805C119.588 33.0144 120.412 33.6677 121.398 34.144C122.384 34.6203 123.417 34.8579 124.499 34.8579C125.3 34.8579 126.059 34.7237 126.779 34.4564C127.496 34.1892 128.094 33.8174 128.568 33.3411C129.102 32.8208 129.561 31.9869 129.946 30.8431L130.414 30.9987C130.029 32.7388 129.198 34.0514 127.928 34.9351C126.657 35.82 124.964 36.2619 122.853 36.2619C121.024 36.2619 119.455 35.9721 118.147 35.3924C116.838 34.8128 115.73 33.9195 114.823 32.7163C113.558 31.0355 112.928 28.9687 112.928 26.5158C112.928 23.1697 114.124 20.5446 116.52 18.6417C118.26 17.2579 120.243 16.5666 122.475 16.5666C123.666 16.5666 124.766 16.7792 125.776 17.2021C126.788 17.6261 127.641 18.2402 128.341 19.0432C129.427 20.2928 129.971 21.8536 129.971 23.728H116.899L116.896 23.7268ZM126.622 22.8573C126.519 21.3702 126.246 20.2251 125.8 19.4221C125.401 18.6928 124.869 18.1167 124.201 17.6938C123.536 17.2698 122.825 17.0584 122.069 17.0584C120.796 17.0584 119.683 17.6083 118.728 18.7094C117.774 19.8105 117.207 21.192 117.03 22.8585H126.622V22.8573Z" fill="white"></path><path d="M138.883 16.5666C139.093 17.4337 139.196 18.2414 139.196 18.9886V19.3473C141.041 17.4943 143.234 16.5666 145.778 16.5666C147.681 16.5666 149.213 17.0132 150.373 17.9029C151.519 18.7795 152.09 20.0279 152.09 21.6457V31.0925C152.09 32.1022 152.15 32.841 152.268 33.309C152.387 33.777 152.618 34.1666 152.96 34.479C153.378 34.8793 154.143 35.1846 155.258 35.3924V35.8604H145.399V35.3924C146.292 35.2736 146.93 35.1062 147.318 34.8912C147.705 34.6762 148.017 34.3091 148.255 33.7889C148.42 33.4468 148.535 32.9313 148.6 32.2411C148.668 31.5498 148.7 30.5592 148.7 29.2668V24.5428C148.7 22.9238 148.644 21.736 148.534 20.9782C148.422 20.2203 148.212 19.6122 147.9 19.1513C147.559 18.6322 147.069 18.2272 146.431 17.9373C145.794 17.6475 145.089 17.5026 144.317 17.5026C143.487 17.5026 142.711 17.6665 141.991 17.9932C141.272 18.3198 140.705 18.7653 140.289 19.3295C139.845 19.9234 139.55 20.5957 139.41 21.3464C139.269 22.0971 139.198 23.3396 139.198 25.0774V29.4438L139.221 31.0925C139.221 32.1022 139.281 32.841 139.4 33.3102C139.518 33.7782 139.749 34.1678 140.091 34.4802C140.507 34.8805 141.274 35.1857 142.389 35.3936V35.8616H132.53V35.3936C133.424 35.276 134.061 35.1097 134.449 34.8947C134.836 34.6797 135.148 34.3139 135.386 33.796C135.549 33.4563 135.664 32.9419 135.732 32.2542C135.798 31.5664 135.831 30.571 135.831 29.2692V23.7874C135.831 22.2646 135.795 21.1944 135.72 20.5803C135.645 19.9661 135.482 19.4673 135.229 19.0824C134.976 18.6679 134.672 18.3685 134.314 18.1832C133.958 17.9979 133.445 17.8839 132.775 17.8399V17.3719L138.885 16.5678L138.883 16.5666Z" fill="white"></path><path d="M155.258 40.9004H4.7513V42.8686H155.258V40.9004Z" fill="white"></path></svg>